# xmcd CD database file
#
# Track frame offsets:
#	150
#	30449
#	47949
#	75931
#	95350
#	131093
#	147075
#	177967
#	202468
#
# Disc length: 3134 seconds
#
# Revision: 0
# Processed by: cddbd v1.5.1PL0 Copyright (c) Steve Scherf et al.
# Submitted via: CDex 1.51
#
DISCID=780c3c09
DTITLE=Veljeni Valas - Veljeni Valas
DYEAR=2003
DGENRE=Jazz
TTITLE0=tuuli
TTITLE1=veljeni valas
TTITLE2=her‰‰minen
TTITLE3=tanssiinkutsu
TTITLE4=tanssit aamunkoitteessa
TTITLE5=tummia pilvi‰
TTITLE6=valasla
TTITLE7=sade
TTITLE8=uni
EXTD=YEAR: 2003
EXTT0=
EXTT1=
EXTT2=
EXTT3=
EXTT4=
EXTT5=
EXTT6=
EXTT7=
EXTT8=
PLAYORDER=
